<svg xmlns="http://www.w3.org/2000/svg" viewBox="0 0 67.417 67.417">
  <path d="M51.781,25.524a.929.929,0,0,1-.928.928H34.927a.928.928,0,1,1,0-1.855H50.853A.928.928,0,0,1,51.781,25.524Zm-.928,7.2H34.927a.928.928,0,1,0,0,1.855H50.853a.928.928,0,1,0,0-1.855Zm0,8.123H34.927a.928.928,0,1,0,0,1.855H50.853a.928.928,0,1,0,0-1.855ZM29.858,38.588a8.126,8.126,0,0,1,.644,3.185.928.928,0,0,1-1.855,0,6.327,6.327,0,1,0-12.654,0,.928.928,0,0,1-1.855,0,8.19,8.19,0,0,1,4.646-7.381,5.6,5.6,0,0,1-.622-.535,5.424,5.424,0,1,1,7.672,0c-.125.124-.254.242-.388.352l.059.025a8.206,8.206,0,0,1,4.353,4.354Zm-4.291-8.567A3.57,3.57,0,1,0,22,33.591,3.573,3.573,0,0,0,25.567,30.021ZM46.974,11.2a2.917,2.917,0,0,1,3.818,1.548l1.449,3.425h2.014L52.5,12.027a4.767,4.767,0,0,0-6.25-2.534l-15.8,6.681h4.762ZM62.383,38.973a4.741,4.741,0,0,1-2.562,2.6l-.358.152V46.3a4.77,4.77,0,0,1-4.769,4.769H37.38L21.166,57.925a4.769,4.769,0,0,1-6.249-2.534l-1.83-4.325h-.364A4.77,4.77,0,0,1,7.954,46.3V38.932L5.062,32.094A4.77,4.77,0,0,1,7.6,25.844l.358-.151V21a4.77,4.77,0,0,1,4.769-4.769H54.694A4.77,4.77,0,0,1,59.463,21v7.483l2.892,6.838A4.738,4.738,0,0,1,62.383,38.973ZM7.954,27.738A2.918,2.918,0,0,0,6.77,31.371l1.184,2.8ZM32.619,51.066H15.1l1.524,3.6a2.918,2.918,0,0,0,3.819,1.548ZM57.608,21a2.917,2.917,0,0,0-2.914-2.914H12.723A2.917,2.917,0,0,0,9.809,21V46.3a2.917,2.917,0,0,0,2.914,2.914H54.694A2.917,2.917,0,0,0,57.608,46.3Zm3.039,15.044-1.184-2.8v6.432A2.918,2.918,0,0,0,60.647,36.046Z" fill="#39434e"/>
</svg>
