<svg xmlns="http://www.w3.org/2000/svg" viewBox="0 0 67.417 67.417">
  <path d="M58.262,57.239H9.155V23.478H58.262V57.239ZM54.17,62.355H13.247A4.093,4.093,0,0,1,9.3,59.286H58.117a4.093,4.093,0,0,1-3.947,3.069ZM13.247,18.362H54.17a4.092,4.092,0,0,1,3.947,3.07H9.3a4.092,4.092,0,0,1,3.947-3.07Zm39.9-5.115v3.069H14.27V13.247ZM12.224,6.086a1.024,1.024,0,0,1,1.023-1.024H54.17a1.024,1.024,0,0,1,1.023,1.024V11.2H53.147V7.109H51.1V11.2H49.055V7.109H47.009V11.2H44.962V7.109H42.916V11.2H40.87V7.109H38.824V11.2H36.778V7.109H34.732V11.2H32.686V7.109H30.639V11.2H28.593V7.109H26.547V11.2H24.5V7.109H22.455V11.2H20.409V7.109H18.362V11.2H16.316V7.109H14.27V11.2H12.224V6.086ZM55.193,16.408V13.247h1.023a1.023,1.023,0,0,0,1.023-1.023V6.086a3.069,3.069,0,0,0-3.069-3.07H13.247a3.069,3.069,0,0,0-3.069,3.07v6.138A1.023,1.023,0,0,0,11.2,13.247h1.023v3.161a6.139,6.139,0,0,0-5.115,6.047V58.262A6.146,6.146,0,0,0,13.247,64.4H54.17a6.146,6.146,0,0,0,6.139-6.139V22.455a6.14,6.14,0,0,0-5.116-6.047ZM54.17,39.847H53.147V37.8H54.17v2.046ZM51.1,43.939H49.055V33.709H51.1v10.23Zm-4.092,2.047H44.962V31.662h2.047V45.986ZM42.916,31.662V47.009H40.87V30.639h2.046v1.023Zm-4.092,8.185H28.593V37.8H38.824v2.046ZM26.547,47.009H24.5V30.639h2.046v16.37Zm-4.092-1.023H20.409V31.662h2.046V45.986Zm-4.093-2.047H16.316V33.709h2.046v10.23ZM14.27,39.847H13.247V37.8H14.27v2.046Zm39.9-4.092H53.147V33.709A2.046,2.046,0,0,0,51.1,31.662H49.055a2.046,2.046,0,0,0-2.046-2.046H44.962a2.06,2.06,0,0,0-.27.028,2.04,2.04,0,0,0-1.776-1.051H40.87a2.046,2.046,0,0,0-2.046,2.046v5.116H28.593V30.639a2.046,2.046,0,0,0-2.046-2.046H24.5a2.04,2.04,0,0,0-1.776,1.051,2.042,2.042,0,0,0-.27-.028H20.409a2.046,2.046,0,0,0-2.047,2.046H16.316a2.046,2.046,0,0,0-2.046,2.047v2.046H13.247A2.046,2.046,0,0,0,11.2,37.8v2.046a2.046,2.046,0,0,0,2.046,2.046H14.27v2.046a2.047,2.047,0,0,0,2.046,2.047h2.046a2.046,2.046,0,0,0,2.047,2.046h2.046a2.042,2.042,0,0,0,.27-.028A2.04,2.04,0,0,0,24.5,49.055h2.046a2.046,2.046,0,0,0,2.046-2.046V41.893H38.824v5.116a2.046,2.046,0,0,0,2.046,2.046h2.046A2.04,2.04,0,0,0,44.692,48a2.06,2.06,0,0,0,.27.028h2.047a2.046,2.046,0,0,0,2.046-2.046H51.1a2.047,2.047,0,0,0,2.046-2.047V41.893H54.17a2.046,2.046,0,0,0,2.046-2.046V37.8a2.046,2.046,0,0,0-2.046-2.046ZM12.224,53.147v2.046H55.193V53.147Z" fill="#39434e"/>
</svg>
