<svg xmlns="http://www.w3.org/2000/svg" viewBox="0 0 67.417 67.417">
  <path d="M50.79,22.389,47.4,38.3a19.177,19.177,0,0,0-4.257-4.422l1.8-9.58a3.754,3.754,0,0,0-1.59-3.687V15.243a9.12,9.12,0,0,1,6.166,2.908h0a5.215,5.215,0,0,1,1.272,4.238ZM45.482,58.963a16.924,16.924,0,0,1-3.909,3.909H21.83a16.951,16.951,0,1,1,23.652-3.909ZM12.618,22.432a5.23,5.23,0,0,1,1.265-4.284A9.455,9.455,0,0,1,21.106,15.2h4.238v4.238H23.755a5.807,5.807,0,0,0-4.474,1.9,3.572,3.572,0,0,0-.819,2.967l1.792,9.582A19.177,19.177,0,0,0,16,38.3L12.618,22.432Zm14.845,1.24H41.236a2.113,2.113,0,0,0,1.484-.606,1.36,1.36,0,0,1,.143.847l-1.627,8.694a18.908,18.908,0,0,0-19.064,0l-1.625-8.694a1.451,1.451,0,0,1,.366-1.227,3.74,3.74,0,0,1,2.842-1.133h1.589a2.119,2.119,0,0,0,2.119,2.119Zm23.675-6.889a11.13,11.13,0,0,0-7.783-3.656V1.423H41.236v20.13H40.177v-5.3H38.058v5.3H35.939v-5.3H33.82v5.3H31.7v-5.3H29.582v5.3H27.463V14.136A1.059,1.059,0,0,0,26.4,13.077H22.166v-1.06a1.059,1.059,0,0,1,1.059-1.059H26.4A1.059,1.059,0,0,0,27.463,9.9V1.423H25.344V8.839H23.225a3.178,3.178,0,0,0-3.178,3.178v1.11a11.131,11.131,0,0,0-7.784,3.658,7.342,7.342,0,0,0-1.729,6.05l3.885,18.254A18.994,18.994,0,0,0,20.9,64.8a1.054,1.054,0,0,0,.6.187H41.908a1.057,1.057,0,0,0,.6-.187,18.992,18.992,0,0,0,6.474-23.717l3.893-18.3a7.321,7.321,0,0,0-1.738-6.006Zm-22.16,37a6.357,6.357,0,1,1,9.08-5.743h2.119a8.471,8.471,0,1,0-.817,3.634l-1.914-.909a6.358,6.358,0,0,1-8.468,3.018Z" fill="#39434e"/>
</svg>
