<svg xmlns="http://www.w3.org/2000/svg" viewBox="0 0 67.417 67.417">
  <path d="M33.709,50.77A15.971,15.971,0,1,1,49.679,34.8,15.971,15.971,0,0,1,33.709,50.77Zm0-33.938A17.967,17.967,0,1,0,51.676,34.8,17.967,17.967,0,0,0,33.709,16.832Z" fill="#39434e"/>
  <path d="M59.661,22.821H53.672a2,2,0,0,1-1.728-1H61.39a2,2,0,0,1-1.729,1Zm-.985,32.071a2.826,2.826,0,0,1-4,.022l-.022-.022a2.738,2.738,0,0,1-.746-2.058l1.7-28.017h2.114l1.7,28.017a2.729,2.729,0,0,1-.744,2.058ZM61.657,7.849V19.827h-2V7.849h-2V19.827h-2V7.849h-2V19.827h-2V7.849h-2V20.825a3.992,3.992,0,0,0,3.931,3.986l-1.691,27.9a4.757,4.757,0,1,0,9.5,0l-1.691-27.9a3.994,3.994,0,0,0,3.931-3.987V7.849Z" fill="#39434e"/>
  <path d="M43.606,41.539a12.049,12.049,0,0,1-2.729,2.836L39.85,42.734l-1.7,1.059,1.031,1.648a11.9,11.9,0,0,1-4.477,1.285V44.781h-2v1.945a11.852,11.852,0,0,1-4-1.056l.955-1.688L27.928,43l-.959,1.7a12.054,12.054,0,0,1-2.837-2.729l1.642-1.027-1.059-1.7-1.647,1.031A11.881,11.881,0,0,1,21.782,35.8h1.945v-2H21.782a11.851,11.851,0,0,1,1.056-4l1.689.956.983-1.738-1.7-.96a12.053,12.053,0,0,1,2.731-2.835l1.027,1.642,1.7-1.059-1.035-1.648a11.864,11.864,0,0,1,4.477-1.287v1.945h2V22.872a11.875,11.875,0,0,1,4,1.056l-.955,1.688,1.738.982.959-1.7a12.074,12.074,0,0,1,2.837,2.729l-1.642,1.027,1.059,1.7,1.648-1.03A11.876,11.876,0,0,1,45.636,33.8H43.69v2h1.946a11.874,11.874,0,0,1-1.056,4l-1.688-.955-.982,1.737,1.7.96Zm-9.9-20.714A13.974,13.974,0,1,0,47.683,34.8,13.974,13.974,0,0,0,33.709,20.825Z" fill="#39434e"/>
  <path d="M32.71,26.814h0V34.3l-3.593,2.7,1.2,1.6L34.308,35.6a1,1,0,0,0,.4-.8V26.814Z" fill="#39434e"/>
  <path d="M5.76,17.043A8.7,8.7,0,0,1,9.644,9.786a1.993,1.993,0,0,1,2.215,0,8.707,8.707,0,0,1,3.883,7.257v1.785a4.991,4.991,0,0,1-9.982,0V17.043Zm7,37.85a2.825,2.825,0,0,1-4,.022l-.022-.022A2.735,2.735,0,0,1,8,52.831L9.534,25.7a6.6,6.6,0,0,0,2.434,0l1.538,27.13a2.733,2.733,0,0,1-.746,2.059ZM7.572,25.043,6,52.713a4.756,4.756,0,1,0,9.494,0L13.93,25.043a6.988,6.988,0,0,0,3.808-6.215V17.043a10.7,10.7,0,0,0-4.772-8.918,3.985,3.985,0,0,0-4.429,0,10.7,10.7,0,0,0-4.773,8.918v1.785a6.986,6.986,0,0,0,3.808,6.215Z" fill="#39434e"/>
</svg>
