<svg xmlns="http://www.w3.org/2000/svg" viewBox="0 0 67.417 67.417">
  <path d="M62.053,58.346H5.364A1.967,1.967,0,0,1,3.569,56.21V12.957a1.967,1.967,0,0,1,1.8-2.136H62.053a1.966,1.966,0,0,1,1.8,2.136V56.21A1.966,1.966,0,0,1,62.053,58.346Zm-56.6-1.8H61.965a.643.643,0,0,0,.083-.336V12.957a.643.643,0,0,0-.083-.336H5.452a.643.643,0,0,0-.083.336V56.21A.643.643,0,0,0,5.452,56.546ZM29.571,38.187a1.713,1.713,0,0,1-1.714-1.714V25.694a1.72,1.72,0,0,1,.841-1.475,1.742,1.742,0,0,1,1.7-.027l9.8,5.388a1.713,1.713,0,0,1,0,3l-9.8,5.393A1.729,1.729,0,0,1,29.571,38.187Zm.086-12.348V36.328l9.53-5.247ZM63.848,47.954a.9.9,0,0,0-.9-.9H4.469a.9.9,0,0,0,0,1.8H62.948A.9.9,0,0,0,63.848,47.954ZM57.3,52.706a.9.9,0,0,0-.9-.9H16.616a.9.9,0,0,0,0,1.8H56.4A.9.9,0,0,0,57.3,52.706ZM10.45,53.81V51.591a.9.9,0,1,0-1.8,0V53.81a.9.9,0,0,0,1.8,0Zm2.4,0V51.591a.9.9,0,1,0-1.8,0V53.81a.9.9,0,0,0,1.8,0Z" fill="#39434e"/>
</svg>
