<svg xmlns="http://www.w3.org/2000/svg" viewBox="0 0 67.417 67.417">
  <g>
    <path d="M33.186,64.849A25.184,25.184,0,1,1,58.369,39.665,25.212,25.212,0,0,1,33.186,64.849Zm0-48.353A23.17,23.17,0,1,0,56.354,39.665,23.195,23.195,0,0,0,33.186,16.5Z" fill="#39434e"/>
    <path d="M33.186,60.523A20.882,20.882,0,0,1,12.328,39.665a1.007,1.007,0,0,1,2.014,0A18.843,18.843,0,1,0,33.186,20.822a1.008,1.008,0,1,1,0-2.015,20.858,20.858,0,0,1,0,41.716Z" fill="#39434e"/>
    <path d="M39.036,12.185h-11.7a1.008,1.008,0,0,1-1.007-1.008V5.325a1.007,1.007,0,0,1,1.007-1.007h11.7a1.007,1.007,0,0,1,1.007,1.007v5.852A1.008,1.008,0,0,1,39.036,12.185ZM28.341,10.17h9.688V6.333H28.341Z" fill="#39434e"/>
    <path d="M33.186,16.342a1.008,1.008,0,0,1-1.008-1.007v-3.85a1.008,1.008,0,0,1,2.015,0v3.85A1.007,1.007,0,0,1,33.186,16.342Z" fill="#39434e"/>
    <path d="M33.186,62.18a1.008,1.008,0,0,1-1.008-1.007V57.888a1.008,1.008,0,1,1,2.015,0v3.285A1.007,1.007,0,0,1,33.186,62.18Z" fill="#39434e"/>
    <path d="M33.186,22.553a1.008,1.008,0,0,1-1.008-1.007V18.261a1.008,1.008,0,1,1,2.015,0v3.285A1.007,1.007,0,0,1,33.186,22.553Z" fill="#39434e"/>
    <path d="M15.082,40.672H11.8a1.007,1.007,0,0,1,0-2.014h3.284a1.007,1.007,0,1,1,0,2.014Z" fill="#39434e"/>
    <path d="M54.607,40.672H51.322a1.007,1.007,0,0,1,0-2.014h3.285a1.007,1.007,0,1,1,0,2.014Z" fill="#39434e"/>
    <path d="M52.581,25.735a1.007,1.007,0,0,1-.608-1.811l3.465-2.618a1.007,1.007,0,0,1,1.214,1.608l-3.465,2.618A1,1,0,0,1,52.581,25.735Z" fill="#39434e"/>
    <path d="M58.354,24.966a1,1,0,0,1-.766-.355l-4-4.7a1.007,1.007,0,0,1,1.532-1.306l4,4.7a1.008,1.008,0,0,1-.766,1.661Z" fill="#39434e"/>
    <polygon points="28.341 31.221 28.341 48.888 41.075 39.665 28.341 31.221" fill="#39434e"/>
  </g>
</svg>
