<svg xmlns="http://www.w3.org/2000/svg" viewBox="0 0 67.417 67.417">
  <path d="M55.257,60.493H12.626a5.976,5.976,0,0,1-5.969-5.969V13.6A5.975,5.975,0,0,1,12.626,7.63H20.3a.853.853,0,1,1,0,1.705H12.626A4.268,4.268,0,0,0,8.362,13.6V54.524a4.268,4.268,0,0,0,4.264,4.263H55.257a4.267,4.267,0,0,0,4.263-4.263V13.6a4.267,4.267,0,0,0-4.263-4.263H47.583a.853.853,0,0,1,0-1.705h7.674A5.975,5.975,0,0,1,61.226,13.6V54.524A5.976,5.976,0,0,1,55.257,60.493ZM48.436,20.419a14.495,14.495,0,1,0-28.989,0,.853.853,0,1,0,1.705,0,12.79,12.79,0,0,1,25.579,0,.853.853,0,1,0,1.7,0ZM34.794,54.524V34.061a.853.853,0,1,0-1.7,0V54.524a.853.853,0,1,0,1.7,0ZM43.32,20.419A9.379,9.379,0,1,0,33.941,29.8,9.389,9.389,0,0,0,43.32,20.419Zm-1.7,0a7.674,7.674,0,1,1-7.674-7.674A7.683,7.683,0,0,1,41.615,20.419Zm-6.821,4.263V18.714a.853.853,0,1,0-1.7,0v5.968a.853.853,0,1,0,1.7,0ZM30.585,29.09A.852.852,0,0,0,31.4,28.2c0-.044-.006-.087-.013-.138a2.558,2.558,0,0,1,5.115,0c-.006.047-.012.093-.014.141a.853.853,0,0,0,1.7.074v.017h0a1.445,1.445,0,0,0,.015-.2,4.263,4.263,0,1,0-8.526,0,1.509,1.509,0,0,0,.017.207.853.853,0,0,0,.85.791Zm-.891-.811h0Zm8.5,0h0Z" fill="#39434e" stroke="#39434e" stroke-miterlimit="10" stroke-width="0.5"/>
</svg>
