<svg xmlns="http://www.w3.org/2000/svg" viewBox="0 0 70 70">
  <g>
    <path d="M61.482,51.945l-.05.24a1.32,1.32,0,0,1-.419.57L44.742,65.085a1.666,1.666,0,0,1-.339.23,2.258,2.258,0,0,1-.36.07H13a4.5,4.5,0,0,1-4.5-4.5V16.125a4.507,4.507,0,0,1,4.5-4.5H24.062a10.165,10.165,0,0,0,.56,2.5H13a2.026,2.026,0,0,0-2,2v44.76a2.019,2.019,0,0,0,2,2h28.21v-.5l-.02-15.42h9.84v2.5h-7.32v13.27l.8-.61,14.26-10.81.2-.15V16.125a2.033,2.033,0,0,0-2-2H44.432a9.9,9.9,0,0,0,.571-2.5h11.97a4.507,4.507,0,0,1,4.5,4.5v35.36l.009.05A1.335,1.335,0,0,1,61.482,51.945Z" fill="#39434e"/>
    <path d="M50.513,29.125a1.25,1.25,0,0,1-1.25,1.25H19.893a1.25,1.25,0,0,1,0-2.5h29.37A1.25,1.25,0,0,1,50.513,29.125Z" fill="#39434e"/>
    <path d="M50.513,37.125a1.25,1.25,0,0,1-1.25,1.25H19.893a1.25,1.25,0,0,1,0-2.5h29.37A1.25,1.25,0,0,1,50.513,37.125Z" fill="#39434e"/>
    <path d="M39.013,6.645a5.9,5.9,0,0,0-4.11-2.01c-.12-.01-.25-.02-.37-.02a6.009,6.009,0,0,0-5.971,5.61,5.945,5.945,0,0,0,1.49,4.33,6.08,6.08,0,0,0,1.76,1.37l.36.18-.1.39-.81,3.07a1.25,1.25,0,0,0,.9,1.53,1.635,1.635,0,0,0,.31.04,1.25,1.25,0,0,0,1.209-.94l.861-3.27.09-.34.359-.03a5.969,5.969,0,0,0,4.021-9.91Zm-4.47,7.43a1.793,1.793,0,0,1-.231-.01,3.471,3.471,0,0,1-3.25-3.68,3.489,3.489,0,0,1,3.471-3.27c.07,0,.139.01.22.01a3.516,3.516,0,0,1,2.39,1.17,3.481,3.481,0,0,1-2.6,5.78Z" fill="#39434e"/>
  </g>
</svg>
